# xmcd
#
# Track frame offsets:
#	150
#	11560
#	23462
#	34470
#	45637
#	56272
#	67260
#	89640
#	100450
#	111772
#	131295
#	144257
#	154190
#	164615
# Disc length: 2372 seconds
# Revision: 6
# Processed by: cddbd v1.5.1PL0 Copyright (c) Steve Scherf et al.
#
# Submitted via: libkcddb 0.10
#
DISCID=bb09420e
DTITLE=John Lee Hooker - The Best of John Lee Hooker
DYEAR=1961
DGENRE=Blues
TTITLE0=Boom! Boom!
TTITLE1=I want to hug you
TTITLE2=Good rockin' mama
TTITLE3=Let's make it
TTITLE4=Keep your hands to yourself
TTITLE5=No shoes
TTITLE6=One bourbon, one scotch, one beer
TTITLE7=Bottle up and go
TTITLE8=Hard headed woman
TTITLE9=Ain't no big thing
TTITLE10=Baby Lee
TTITLE11=Dimples
TTITLE12=Big legs, tight skirts
TTITLE13=Time is marching
EXTD=
EXTT0=
EXTT1=
EXTT2=
EXTT3=
EXTT4=
EXTT5=
EXTT6=
EXTT7=
EXTT8=
EXTT9=
EXTT10=
EXTT11=
EXTT12=
EXTT13=
PLAYORDER=
